<svg version="1.1" preserveAspectRatio="none" xmlns="http://www.w3.org/2000/svg" width="500" height="500" viewBox="0 0 500 500"><rect width="100%" height="100%" fill="#FFFFFF" fill-opacity="1"/><svg viewBox="124.5368 428.3307 413.0266 333.8707" width="333" height="269.1810723570831" x="83.5px" y="115.4095px" xmlns="http://www.w3.org/2000/svg" xmlns:xlink="http://www.w3.org/1999/xlink" preserveAspectRatio="none"><defs></defs><style>.aLgOaV3zRcolors-3 {fill:#842416;fill-opacity:1;}.aLgOaV3zRcolors-4 {fill:#AE962C;fill-opacity:1;}.aLgOaV3zRcolors-5 {fill:#494B46;fill-opacity:1;}.aLgOaV3zRcolors-6 {fill:#67590C;fill-opacity:1;}.aLgOaV3zRcolors-7 {fill:#AEAEAE;fill-opacity:1;}.companyName {fill:#A95534;fill-opacity:1;}.icon1 {fill:#DFC13F;fill-opacity:1;}.icon2 {fill:#A95534;fill-opacity:1;}.icon3 {fill:#451813;fill-opacity:1;}.icon3-str {stroke:#451813;stroke-opacity:1;}.text {fill:#A95534;fill-opacity:1;}</style><g opacity="1" transform="rotate(0 124.5368 736.6014)">
<svg width="413.0266" height="25.6" x="124.5368" y="736.6014" version="1.1" preserveAspectRatio="none" viewBox="2.04 -31 628.5200000000001 38.96">
  <g transform="matrix(1 0 0 1 0 0)" class="text"><path id="id-6izo4zJp29" d="M2.04-28.92L21.24-28.92L21.24-25.20L13.48-25.20L13.48 0L9.60 0L9.60-25.20L2.04-25.20L2.04-28.92Z M39.80-16.56L43.24-16.56L43.24 0L39.52 0L39.52-2.72Q38.64-1.56 36.96-0.58Q35.28 0.40 33.16 0.40L33.16 0.40Q30.80 0.40 28.90-0.62Q27-1.64 25.90-3.60Q24.80-5.56 24.80-8.28L24.80-8.28Q24.80-11 25.94-13.02Q27.08-15.04 29.02-16.14Q30.96-17.24 33.32-17.24L33.32-17.24Q35.44-17.24 37-16.32Q38.56-15.40 39.52-13.92L39.52-13.92L39.80-16.56ZM34.16-2.68Q36.20-2.68 37.66-3.82Q39.12-4.96 39.52-6.92L39.52-6.92L39.52-10.20Q39.04-11.96 37.52-13.06Q36-14.16 34.04-14.16L34.04-14.16Q32.56-14.16 31.30-13.44Q30.04-12.72 29.30-11.42Q28.56-10.12 28.56-8.48L28.56-8.48Q28.56-6.88 29.32-5.56Q30.08-4.24 31.36-3.46Q32.64-2.68 34.16-2.68L34.16-2.68Z M58.40 0.36Q56.56 0.36 54.90-0.28Q53.24-0.92 52.20-2.16L52.20-2.16L53.80-4.32Q54.80-3.36 55.90-2.84Q57.00-2.32 58.08-2.32L58.08-2.32Q59.40-2.32 60.24-2.84Q61.08-3.36 61.08-4.44L61.08-4.44Q61.08-5.28 60.56-5.80Q60.04-6.32 59.38-6.56Q58.72-6.80 57.16-7.28L57.16-7.28Q52.92-8.64 52.92-12.12L52.92-12.12Q52.92-14.20 54.46-15.68Q56.00-17.16 58.76-17.16L58.76-17.16Q60.52-17.16 61.88-16.72Q63.24-16.28 64.40-15.32L64.40-15.32L62.92-13.04Q62.28-13.72 61.30-14.12Q60.32-14.52 59.44-14.56L59.44-14.56Q58.32-14.56 57.52-14.02Q56.72-13.48 56.72-12.56L56.72-12.56Q56.72-11.80 57.24-11.30Q57.76-10.80 58.32-10.58Q58.88-10.36 60.52-9.84L60.52-9.84Q62.56-9.16 63.70-8.08Q64.84-7 64.84-5.16L64.84-5.16Q64.84-2.76 63.16-1.20Q61.48 0.36 58.40 0.36L58.40 0.36Z M75.64-23.84L79.40-23.84L79.40-16.52L83.92-16.52L83.92-13.56L79.40-13.56L79.40 0L75.64 0L75.64-13.56L72.60-13.56L72.60-16.52L75.64-16.52L75.64-23.84Z M100.20-2.80Q102.28-2.80 104.24-4.24L104.24-4.24L105.96-1.48Q104.64-0.60 103.10-0.10Q101.56 0.40 100.12 0.40L100.12 0.40Q97.36 0.40 95.30-0.74Q93.24-1.88 92.12-3.88Q91.00-5.88 91.00-8.40L91.00-8.40Q91.00-10.84 92.22-12.86Q93.44-14.88 95.56-16.06Q97.68-17.24 100.20-17.24L100.20-17.24Q103.44-17.24 105.62-15.34Q107.80-13.44 108.60-10.04L108.60-10.04L95.48-5.44Q96.20-4.20 97.42-3.50Q98.64-2.80 100.20-2.80L100.20-2.80ZM99.92-14.28Q97.64-14.28 96.16-12.68Q94.68-11.08 94.68-8.60L94.68-8.60Q94.68-8 94.72-7.68L94.72-7.68L104.36-11.24Q103.76-12.60 102.66-13.44Q101.56-14.28 99.92-14.28L99.92-14.28Z M144.16-17.20Q146.48-17.20 148-15.82Q149.52-14.44 149.56-12.24L149.56-12.24L149.56 0L145.80 0L145.80-10.96Q145.72-12.36 144.96-13.16Q144.20-13.96 142.68-14L142.68-14Q141.24-14 140.08-13.20Q138.92-12.40 138.26-10.96Q137.60-9.52 137.60-7.76L137.60-7.76L137.60 0L133.88 0L133.88-31L137.52-31L137.52-13.56Q138.44-15.20 140.18-16.20Q141.92-17.20 144.16-17.20L144.16-17.20Z M173.56-16.56L177.00-16.56L177.00 0L173.28 0L173.28-2.72Q172.40-1.56 170.72-0.58Q169.04 0.40 166.92 0.40L166.92 0.40Q164.56 0.40 162.66-0.62Q160.76-1.64 159.66-3.60Q158.56-5.56 158.56-8.28L158.56-8.28Q158.56-11 159.70-13.02Q160.84-15.04 162.78-16.14Q164.72-17.24 167.08-17.24L167.08-17.24Q169.20-17.24 170.76-16.32Q172.32-15.40 173.28-13.92L173.28-13.92L173.56-16.56ZM167.92-2.68Q169.96-2.68 171.42-3.82Q172.88-4.96 173.28-6.92L173.28-6.92L173.28-10.20Q172.80-11.96 171.28-13.06Q169.76-14.16 167.80-14.16L167.80-14.16Q166.32-14.16 165.06-13.44Q163.80-12.72 163.06-11.42Q162.32-10.12 162.32-8.48L162.32-8.48Q162.32-6.88 163.08-5.56Q163.84-4.24 165.12-3.46Q166.40-2.68 167.92-2.68L167.92-2.68Z M197.96-17.24Q200.28-17.24 202.16-16.12Q204.04-15 205.12-12.98Q206.20-10.96 206.20-8.32L206.20-8.32Q206.20-5.72 205.04-3.74Q203.88-1.76 201.84-0.68Q199.80 0.40 197.28 0.40L197.28 0.40Q195.48 0.40 193.84-0.38Q192.20-1.16 191.20-2.48L191.20-2.48L191.20 7.96L187.48 7.96L187.48-16.84L190.72-16.84L191.04-14.04Q192.32-15.48 194.10-16.36Q195.88-17.24 197.96-17.24L197.96-17.24ZM196.56-2.60Q198.12-2.60 199.46-3.34Q200.80-4.08 201.60-5.38Q202.40-6.68 202.40-8.28L202.40-8.28Q202.40-9.92 201.66-11.24Q200.92-12.56 199.64-13.32Q198.36-14.08 196.80-14.08L196.80-14.08Q194.68-14.08 193.18-12.90Q191.68-11.72 191.20-9.72L191.20-9.72L191.20-6.96Q191.52-5.04 193.02-3.82Q194.52-2.60 196.56-2.60L196.56-2.60Z M225.68-17.24Q228-17.24 229.88-16.12Q231.76-15 232.84-12.98Q233.92-10.96 233.92-8.32L233.92-8.32Q233.92-5.72 232.76-3.74Q231.60-1.76 229.56-0.68Q227.52 0.40 225 0.40L225 0.40Q223.20 0.40 221.56-0.38Q219.92-1.16 218.92-2.48L218.92-2.48L218.92 7.96L215.20 7.96L215.20-16.84L218.44-16.84L218.76-14.04Q220.04-15.48 221.82-16.36Q223.60-17.24 225.68-17.24L225.68-17.24ZM224.28-2.60Q225.84-2.60 227.18-3.34Q228.52-4.08 229.32-5.38Q230.12-6.68 230.12-8.28L230.12-8.28Q230.12-9.92 229.38-11.24Q228.64-12.56 227.36-13.32Q226.08-14.08 224.52-14.08L224.52-14.08Q222.40-14.08 220.90-12.90Q219.40-11.72 218.92-9.72L218.92-9.72L218.92-6.96Q219.24-5.04 220.74-3.82Q222.24-2.60 224.28-2.60L224.28-2.60Z M242.92-16.56L246.64-16.56L246.64 0L242.92 0L242.92-16.56ZM242.64-22.52Q242.64-23.40 243.32-24Q244-24.60 244.88-24.60L244.88-24.60Q245.76-24.60 246.42-24Q247.08-23.40 247.08-22.52L247.08-22.52Q247.08-21.64 246.42-21.04Q245.76-20.44 244.88-20.44L244.88-20.44Q244-20.44 243.32-21.04Q242.64-21.64 242.64-22.52L242.64-22.52Z M267.40-17.20Q269.72-17.20 271.24-15.82Q272.76-14.44 272.80-12.24L272.80-12.24L272.80 0L269.04 0L269.04-10.96Q268.96-12.36 268.20-13.16Q267.44-13.96 265.92-14L265.92-14Q263.72-14 262.28-12.24Q260.84-10.48 260.84-7.76L260.84-7.76L260.84 0L257.12 0L257.12-16.56L260.48-16.56L260.72-13.36Q261.60-15.16 263.36-16.18Q265.12-17.20 267.40-17.20L267.40-17.20Z M291-2.80Q293.08-2.80 295.04-4.24L295.04-4.24L296.76-1.48Q295.44-0.60 293.90-0.10Q292.36 0.40 290.92 0.40L290.92 0.40Q288.16 0.40 286.10-0.74Q284.04-1.88 282.92-3.88Q281.80-5.88 281.80-8.40L281.80-8.40Q281.80-10.84 283.02-12.86Q284.24-14.88 286.36-16.06Q288.48-17.24 291-17.24L291-17.24Q294.24-17.24 296.42-15.34Q298.60-13.44 299.40-10.04L299.40-10.04L286.28-5.44Q287-4.20 288.22-3.50Q289.44-2.80 291-2.80L291-2.80ZM290.72-14.28Q288.44-14.28 286.96-12.68Q285.48-11.08 285.48-8.60L285.48-8.60Q285.48-8 285.52-7.68L285.52-7.68L295.16-11.24Q294.56-12.60 293.46-13.44Q292.36-14.28 290.72-14.28L290.72-14.28Z M312.72 0.36Q310.88 0.36 309.22-0.28Q307.56-0.92 306.52-2.16L306.52-2.16L308.12-4.32Q309.12-3.36 310.22-2.84Q311.32-2.32 312.40-2.32L312.40-2.32Q313.72-2.32 314.56-2.84Q315.40-3.36 315.40-4.44L315.40-4.44Q315.40-5.28 314.88-5.80Q314.36-6.32 313.70-6.56Q313.04-6.80 311.48-7.28L311.48-7.28Q307.24-8.64 307.24-12.12L307.24-12.12Q307.24-14.20 308.78-15.68Q310.32-17.16 313.08-17.16L313.08-17.16Q314.84-17.16 316.20-16.72Q317.56-16.28 318.72-15.32L318.72-15.32L317.24-13.04Q316.60-13.72 315.62-14.12Q314.64-14.52 313.76-14.56L313.76-14.56Q312.64-14.56 311.84-14.02Q311.04-13.48 311.04-12.56L311.04-12.56Q311.04-11.80 311.56-11.30Q312.08-10.80 312.64-10.58Q313.20-10.36 314.84-9.84L314.84-9.84Q316.88-9.16 318.02-8.08Q319.16-7 319.16-5.16L319.16-5.16Q319.16-2.76 317.48-1.20Q315.80 0.36 312.72 0.36L312.72 0.36Z M333.04 0.36Q331.20 0.36 329.54-0.28Q327.88-0.92 326.84-2.16L326.84-2.16L328.44-4.32Q329.44-3.36 330.54-2.84Q331.64-2.32 332.72-2.32L332.72-2.32Q334.04-2.32 334.88-2.84Q335.72-3.36 335.72-4.44L335.72-4.44Q335.72-5.28 335.20-5.80Q334.68-6.32 334.02-6.56Q333.36-6.80 331.80-7.28L331.80-7.28Q327.56-8.64 327.56-12.12L327.56-12.12Q327.56-14.20 329.10-15.68Q330.64-17.16 333.40-17.16L333.40-17.16Q335.16-17.16 336.52-16.72Q337.88-16.28 339.04-15.32L339.04-15.32L337.56-13.04Q336.92-13.72 335.94-14.12Q334.96-14.52 334.08-14.56L334.08-14.56Q332.96-14.56 332.16-14.02Q331.36-13.48 331.36-12.56L331.36-12.56Q331.36-11.80 331.88-11.30Q332.40-10.80 332.96-10.58Q333.52-10.36 335.16-9.84L335.16-9.84Q337.20-9.16 338.34-8.08Q339.48-7 339.48-5.16L339.48-5.16Q339.48-2.76 337.80-1.20Q336.12 0.36 333.04 0.36L333.04 0.36Z M365.32-16.56L369.04-16.56L369.04 0L365.32 0L365.32-16.56ZM365.04-22.52Q365.04-23.40 365.72-24Q366.40-24.60 367.28-24.60L367.28-24.60Q368.16-24.60 368.82-24Q369.48-23.40 369.48-22.52L369.48-22.52Q369.48-21.64 368.82-21.04Q368.16-20.44 367.28-20.44L367.28-20.44Q366.40-20.44 365.72-21.04Q365.04-21.64 365.04-22.52L365.04-22.52Z M389.80-17.20Q392.12-17.20 393.64-15.82Q395.16-14.44 395.20-12.24L395.20-12.24L395.20 0L391.44 0L391.44-10.96Q391.36-12.36 390.60-13.16Q389.84-13.96 388.32-14L388.32-14Q386.12-14 384.68-12.24Q383.24-10.48 383.24-7.76L383.24-7.76L383.24 0L379.52 0L379.52-16.56L382.88-16.56L383.12-13.36Q384-15.16 385.76-16.18Q387.52-17.20 389.80-17.20L389.80-17.20Z M430.04-2.80Q432.12-2.80 434.08-4.24L434.08-4.24L435.80-1.48Q434.48-0.60 432.94-0.10Q431.40 0.40 429.96 0.40L429.96 0.40Q427.20 0.40 425.14-0.74Q423.08-1.88 421.96-3.88Q420.84-5.88 420.84-8.40L420.84-8.40Q420.84-10.84 422.06-12.86Q423.28-14.88 425.40-16.06Q427.52-17.24 430.04-17.24L430.04-17.24Q433.28-17.24 435.46-15.34Q437.64-13.44 438.44-10.04L438.44-10.04L425.32-5.44Q426.04-4.20 427.26-3.50Q428.48-2.80 430.04-2.80L430.04-2.80ZM429.76-14.28Q427.48-14.28 426.00-12.68Q424.52-11.08 424.52-8.60L424.52-8.60Q424.52-8 424.56-7.68L424.56-7.68L434.20-11.24Q433.60-12.60 432.50-13.44Q431.40-14.28 429.76-14.28L429.76-14.28Z M458.08-16.56L462.24-16.56L453.40 0.48L453.20 0.48L444.00-16.56L448.44-16.56L453.44-6L458.08-16.56Z M477.60-2.80Q479.68-2.80 481.64-4.24L481.64-4.24L483.36-1.48Q482.04-0.60 480.50-0.10Q478.96 0.40 477.52 0.40L477.52 0.40Q474.76 0.40 472.70-0.74Q470.64-1.88 469.52-3.88Q468.40-5.88 468.40-8.40L468.40-8.40Q468.40-10.84 469.62-12.86Q470.84-14.88 472.96-16.06Q475.08-17.24 477.60-17.24L477.60-17.24Q480.84-17.24 483.02-15.34Q485.20-13.44 486.00-10.04L486.00-10.04L472.88-5.44Q473.60-4.20 474.82-3.50Q476.04-2.80 477.60-2.80L477.60-2.80ZM477.32-14.28Q475.04-14.28 473.56-12.68Q472.08-11.08 472.08-8.60L472.08-8.60Q472.08-8 472.12-7.68L472.12-7.68L481.76-11.24Q481.16-12.60 480.06-13.44Q478.96-14.28 477.32-14.28L477.32-14.28Z M498.24-12.64Q498.88-14 500.06-15.04Q501.24-16.08 502.56-16.64Q503.88-17.20 504.88-17.24L504.88-17.24L504.72-13.52Q502.92-13.60 501.46-12.80Q500-12 499.18-10.58Q498.36-9.16 498.36-7.56L498.36-7.56L498.36 0L494.64 0L494.64-16.56L497.96-16.56L498.24-12.64Z M526-16.56L529.44-16.56L518.76 7.96L515.08 7.96L518.88-0.56L511.20-16.56L515.40-16.56L520.76-4.76L526-16.56Z M564.68-17.24Q566.92-17.24 568.78-16.16Q570.64-15.08 571.72-13.12Q572.80-11.16 572.80-8.56L572.80-8.56Q572.80-5.84 571.64-3.80Q570.48-1.76 568.50-0.68Q566.52 0.40 564.20 0.40L564.20 0.40Q562.16 0.40 560.50-0.40Q558.84-1.20 557.80-2.56L557.80-2.56L557.80 0L554.08 0L554.08-31L557.80-31L557.80-14.36Q558.84-15.68 560.66-16.46Q562.48-17.24 564.68-17.24L564.68-17.24ZM563.40-2.80Q565.84-2.80 567.42-4.44Q569-6.08 569-8.56L569-8.56Q569-10.16 568.26-11.46Q567.52-12.76 566.24-13.52Q564.96-14.28 563.40-14.28L563.40-14.28Q561.36-14.28 559.82-13.18Q558.28-12.08 557.80-10.28L557.80-10.28L557.80-6.92Q558.28-5.12 559.80-3.96Q561.32-2.80 563.40-2.80L563.40-2.80Z M581.80-16.56L585.52-16.56L585.52 0L581.80 0L581.80-16.56ZM581.52-22.52Q581.52-23.40 582.20-24Q582.88-24.60 583.76-24.60L583.76-24.60Q584.64-24.60 585.30-24Q585.96-23.40 585.96-22.52L585.96-22.52Q585.96-21.64 585.30-21.04Q584.64-20.44 583.76-20.44L583.76-20.44Q582.88-20.44 582.20-21.04Q581.52-21.64 581.52-22.52L581.52-22.52Z M597.60-23.84L601.36-23.84L601.36-16.52L605.88-16.52L605.88-13.56L601.36-13.56L601.36 0L597.60 0L597.60-13.56L594.56-13.56L594.56-16.52L597.60-16.52L597.60-23.84Z M622.16-2.80Q624.24-2.80 626.20-4.24L626.20-4.24L627.92-1.48Q626.60-0.60 625.06-0.10Q623.52 0.40 622.08 0.40L622.08 0.40Q619.32 0.40 617.26-0.74Q615.20-1.88 614.08-3.88Q612.96-5.88 612.96-8.40L612.96-8.40Q612.96-10.84 614.18-12.86Q615.40-14.88 617.52-16.06Q619.64-17.24 622.16-17.24L622.16-17.24Q625.40-17.24 627.58-15.34Q629.76-13.44 630.56-10.04L630.56-10.04L617.44-5.44Q618.16-4.20 619.38-3.50Q620.60-2.80 622.16-2.80L622.16-2.80ZM621.88-14.28Q619.60-14.28 618.12-12.68Q616.64-11.08 616.64-8.60L616.64-8.60Q616.64-8 616.68-7.68L616.68-7.68L626.32-11.24Q625.72-12.60 624.62-13.44Q623.52-14.28 621.88-14.28L621.88-14.28Z"/></g>
</svg>
</g><g opacity="1" transform="rotate(0 150.7794 638.6014)">
<svg width="360.5414" height="80" x="150.7794" y="638.6014" version="1.1" preserveAspectRatio="none" viewBox="2 -29.2 133.76 29.68">
  <g transform="matrix(1 0 0 1 0 0)" class="companyName"><path id="id-D6z1nYkh5" d="M20.64 0Q19.56 0 19.08-0.56Q18.60-1.12 18.60-2.24L18.60-2.24Q16.04 0.48 11.64 0.48L11.64 0.48Q7.24 0.48 4.62-2.04Q2-4.56 2-9.92L2-9.92Q2-15.08 4.60-17.50Q7.20-19.92 11.64-19.92L11.64-19.92Q14.04-19.92 15.66-19.36Q17.28-18.80 18.52-17.92L18.52-17.92L18.52-26.08Q18.52-26.52 18.34-26.68Q18.16-26.84 17.56-26.96L17.56-26.96L16.16-27.28L16.16-28L25.76-29.20L26.52-29.20L26.52-1.92Q26.52-1.48 26.70-1.32Q26.88-1.16 27.48-1.04L27.48-1.04L28.88-0.72L28.88 0L20.64 0ZM14-1.24Q16.36-1.24 18.52-3.48L18.52-3.48L18.52-16.72Q16.60-18.24 14.20-18.24L14.20-18.24Q12-18.24 11.12-16.30Q10.24-14.36 10.24-9.92L10.24-9.92Q10.24-6.76 10.58-4.90Q10.92-3.04 11.74-2.14Q12.56-1.24 14-1.24L14-1.24Z M56.80-9.72Q56.80-4.56 53.58-2.04Q50.36 0.48 44.32 0.48L44.32 0.48Q38.28 0.48 35.06-2.04Q31.84-4.56 31.84-9.72L31.84-9.72Q31.84-14.88 35.06-17.40Q38.28-19.92 44.32-19.92L44.32-19.92Q50.36-19.92 53.58-17.40Q56.80-14.88 56.80-9.72L56.80-9.72ZM40.16-9.72Q40.16-6.16 40.50-4.24Q40.84-2.32 41.72-1.44Q42.60-0.56 44.32-0.56L44.32-0.56Q46.04-0.56 46.92-1.44Q47.80-2.32 48.14-4.24Q48.48-6.16 48.48-9.72L48.48-9.72Q48.48-13.28 48.14-15.20Q47.80-17.12 46.92-18Q46.04-18.88 44.32-18.88L44.32-18.88Q42.60-18.88 41.72-18Q40.84-17.12 40.50-15.20Q40.16-13.28 40.16-9.72L40.16-9.72Z M85.56-1.92Q85.56-1.48 85.74-1.32Q85.92-1.16 86.52-1.04L86.52-1.04L87.92-0.72L87.92 0L79.60 0Q78.52 0 78.04-0.56Q77.56-1.12 77.56-2.24L77.56-2.24L77.56-14.40Q77.56-16.20 76.98-16.96Q76.40-17.72 75.04-17.72L75.04-17.72Q72.64-17.72 70.12-15.72L70.12-15.72L70.12-1.92Q70.12-1.48 70.30-1.30Q70.48-1.12 71.04-1L71.04-1L72.40-0.72L72.40 0L59.76 0L59.76-0.72L61.16-1.04Q61.76-1.16 61.94-1.32Q62.12-1.48 62.12-1.92L62.12-1.92L62.12-17.04Q62.12-17.48 61.94-17.64Q61.76-17.80 61.16-17.92L61.16-17.92L59.76-18.24L59.76-18.96L69.36-20.16L70.04-20.16L70.04-16.92Q71.56-18.16 73.76-19.04Q75.96-19.92 78.64-19.92L78.64-19.92Q82.36-19.92 83.96-18.36Q85.56-16.80 85.56-13.68L85.56-13.68L85.56-1.92Z M107.32-17.04Q107.32-17.48 107.14-17.64Q106.96-17.80 106.36-17.92L106.36-17.92L104.96-18.24L104.96-18.96L114.64-20.16L115.32-20.16L115.32-1.92Q115.32-1.48 115.50-1.32Q115.68-1.16 116.28-1.04L116.28-1.04L117.68-0.72L117.68 0L109.56 0Q108.40 0 107.90-0.50Q107.40-1 107.40-2.08L107.40-2.08L107.40-2.52Q105.96-1.28 103.76-0.40Q101.56 0.48 98.88 0.48L98.88 0.48Q95.16 0.48 93.56-1.08Q91.96-2.64 91.96-5.76L91.96-5.76L91.96-17.04Q91.96-17.48 91.78-17.64Q91.60-17.80 91-17.92L91-17.92L89.60-18.24L89.60-18.96L99.28-20.16L99.96-20.16L99.96-5.04Q99.96-3.24 100.54-2.48Q101.12-1.72 102.48-1.72L102.48-1.72Q104.88-1.72 107.32-3.72L107.32-3.72L107.32-17.04Z M122.12-18.40L119.52-18.40L119.52-19.44Q120.76-19.44 121.36-19.64Q121.96-19.84 122.56-20.36L122.56-20.36L129.68-26.76L130.04-26.76L130.04-19.44L135.20-19.44L135.20-18.40L130.04-18.40L130.04-4.96Q130.04-3.04 130.50-2.26Q130.96-1.48 132.08-1.48L132.08-1.48Q132.96-1.48 133.64-1.84Q134.32-2.20 135.12-3.08L135.12-3.08L135.76-2.32Q133.24 0.48 128.32 0.48L128.32 0.48Q125 0.48 123.56-0.92Q122.12-2.32 122.12-5.28L122.12-5.28L122.12-18.40Z"/></g>
</svg>
</g><g opacity="1" transform="rotate(0 240.9148 428.3307)">
<svg width="180.2707" height="180.2707" x="240.9148" y="428.3307" version="1.1" preserveAspectRatio="none" viewBox="20 20 160 160">
  <g transform="matrix(1 0 0 1 0 0)"><g><path d="M100 20c-44.112 0-80 35.888-80 80 0 44.113 35.888 80 80 80 44.113 0 80-35.887 80-80 0-44.112-35.887-80-80-80zm0 155.493c-41.627 0-75.493-33.867-75.493-75.493 0-41.627 33.866-75.493 75.493-75.493 41.626 0 75.493 33.866 75.493 75.493 0 41.626-33.867 75.493-75.493 75.493zm44.914-86.127h-11.202c-.083-.367-.224-.723-.495-1.022-3.695-4.07-3.697-10.938 0-14.998 2.014-2.22 3.247-4.97 3.724-7.843l2.896-.253a2.253 2.253 0 0 0 2.049-2.441c-.11-1.24-1.217-2.162-2.441-2.049l-2.43.213a15.864 15.864 0 0 0-1.379-4.917h3.801a2.253 2.253 0 1 0 0-4.508h-83.38a2.254 2.254 0 0 0 0 4.508h56.342c1.481 1.965 2.242 4.41 2.217 6.876L58.501 67.84a2.253 2.253 0 1 0 .392 4.49l54.702-4.784c-.444.999-.997 1.95-1.739 2.768-4.712 5.176-5.189 13.241-1.49 19.053h-54.31a2.254 2.254 0 0 0-2.254 2.254c0 18.36 10.682 34.233 26.134 41.852v8.85a2.253 2.253 0 0 0 2.254 2.254h35.542a2.253 2.253 0 0 0 2.254-2.254v-8.345c16.017-7.405 27.181-23.584 27.181-42.357a2.252 2.252 0 0 0-2.253-2.255zm-14.487-33.31c1.165 1.547 1.871 3.384 2.104 5.309l-4.462.39a15.93 15.93 0 0 0-1.448-5.699h3.806zm-2.688 10.252 4.461-.39c-.437 1.617-1.181 3.145-2.316 4.396-4.712 5.176-5.189 13.241-1.49 19.053H124.7c-.083-.367-.224-.723-.495-1.022-3.695-4.07-3.697-10.938 0-14.998 1.822-2.01 2.97-4.463 3.534-7.039zm-6.326-10.252c1.323 1.756 2.049 3.892 2.171 6.091l-4.46.39c-.037-2.238-.569-4.444-1.516-6.481h3.805zm-6.224 17.29c1.63-1.796 2.696-3.956 3.319-6.231l4.466-.39c-.461 1.316-1.157 2.546-2.104 3.589-4.712 5.176-5.189 13.241-1.49 19.053h-3.694c-.083-.367-.224-.723-.495-1.022-3.697-4.071-3.699-10.939-.002-14.999zm.291 66.722H84.444v-4.667c5.011 1.842 10.399 2.9 16.041 2.9 5.25 0 10.281-.911 14.994-2.516v4.283zm-14.995-6.274c-18.343 0-33.981-11.775-39.773-28.16h65.203c1.246 0 2.254-1.008 2.254-2.254s-1.008-2.254-2.254-2.254H59.424c-.545-2.353-.924-4.769-1.055-7.254h84.232c-1.175 22.213-19.617 39.922-42.116 39.922z" data-color="1" class="icon1"></path></g></g>
</svg>
</g></svg></svg>